{"title":"The.Borgias.S02E02.HDTV.XviD-Atilla82","uid":7258731,"size":417911774,"categoryP":"video","categoryS":"tv_shows","magnet":"?xt=urn:btih:fed3da18e31e1d3a2a629bd667cf893f943cba60&amp;dn=The.Borgias.S02E02.HDTV.XviD-Atilla82&amp;tr=udp%3A%2F%2Ftracker.openbittorrent.com%3A80&amp;tr=udp%3A%2F%2Fopen.demonii.com%3A1337&amp;tr=udp%3A%2F%2Ftracker.coppersurfer.tk%3A6969&amp;tr=udp%3A%2F%2Fexodus.desync.com%3A6969","seeders":0,"leechers":1,"uploader":"Atilla82","files":3,"time":1336660976,"description":"The Borgias S02E02 HDTV XviD Atilla82\n\n\n\nThe Borgias (2011)\n\nThe saga of a crime family in 1492 Italy.\n &lt;a href=&quot;\nhttp://www.imdb.com/title/tt1582457/&quot; rel=&quot;nofollow&quot; target=&quot;_NEW&quot;&gt;\nhttp://www.imdb.com/title/tt1582457/&lt;/a&gt;\n\n\n\nlanguage: English\n\nscreenshots included in torrent\n\n\n\n\nGeneral\nComplete name                            : The.Borgias.S02E02.HDTV.XviD-Atilla82.avi\nFormat                                   : AVI\nFormat/Info                              : Audio Video Interleave\nFile size                                : 398 MiB\nDuration                                 : 47mn 44s\nOverall bit rate                         : 1 167 Kbps\nMovie name                               : The Borgias season 02 episode 02\nDirector                                 : Atilla82\nWriting application                      : VirtualDubMod 1.5.10.2 (build 2540/release)\nWriting library                          : VirtualDubMod build 2540/release\n\nVideo\nID                                       : 0\nFormat                                   : MPEG-4 Visual\nFormat profile                           : Advanced Simple@L5\nFormat settings, BVOP                    : No\nFormat settings, QPel                    : Yes\nFormat settings, GMC                     : No warppoints\nFormat settings, Matrix                  : Default (H.263)\nCodec ID                                 : XVID\nCodec ID/Hint                            : XviD\nDuration                                 : 47mn 44s\nBit rate                                 : 1 029 Kbps\nWidth                                    : 680 pixels\nHeight                                   : 380 pixels\nDisplay aspect ratio                     : 16:9\nFrame rate                               : 23.976 fps\nColor space                              : YUV\nChroma subsampling                       : 4:2:0\nBit depth                                : 8 bits\nScan type                                : Progressive\nCompression mode                         : Lossy\nBits/(Pixel*Frame)                       : 0.166\nStream size                              : 352 MiB (88%)\nWriting library                          : XviD 64\n\nAudio\nID                                       : 1\nFormat                                   : MPEG Audio\nFormat version                           : Version 1\nFormat profile                           : Layer 3\nCodec ID                                 : 55\nCodec ID/Hint                            : MP3\nDuration                                 : 47mn 44s\nBit rate mode                            : Constant\nBit rate                                 : 128 Kbps\nChannel(s)                               : 2 channels\nSampling rate                            : 48.0 KHz\nCompression mode                         : Lossy\nStream size                              : 43.7 MiB (11%)\nAlignment                                : Aligned on interleaves\nInterleave, duration                     : 42 ms (1.00 video frame)\nInterleave, preload duration             : 504 ms\n\n\n\n\n\nSCREENSHOTS &lt;a href=&quot;\nhttp://www.pohrani.com/f/1U/Rf/2i3WuF7k/theborgiass02e02screensh.jpg&quot; rel=&quot;nofollow&quot; target=&quot;_NEW&quot;&gt;\nhttp://www.pohrani.com/f/1U/Rf/2i3WuF7k/theborgiass02e02screensh.jpg&lt;/a&gt;\n\n","torrent":{"xt":"urn:btih:fed3da18e31e1d3a2a629bd667cf893f943cba60","amp;dn":"The.Borgias.S02E02.HDTV.XviD-Atilla82","amp;tr":["udp%3A%2F%2Ftracker.openbittorrent.com%3A80","udp%3A%2F%2Fopen.demonii.com%3A1337","udp%3A%2F%2Ftracker.coppersurfer.tk%3A6969","udp%3A%2F%2Fexodus.desync.com%3A6969"],"infoHash":"fed3da18e31e1d3a2a629bd667cf893f943cba60","infoHashBuffer":{"type":"Buffer","data":[254,211,218,24,227,30,29,58,42,98,155,214,103,207,137,63,148,60,186,96]},"announce":[],"urlList":[]}}